<svg id="american-express-1" xmlns="http://www.w3.org/2000/svg" width="22.898" height="22.898" viewBox="0 0 22.898 22.898">
  <path id="Path_138" data-name="Path 138" d="M0,0H22.9V22.9H0Z" fill="#fff" fill-rule="evenodd"/>
  <path id="Path_139" data-name="Path 139" d="M4.594,32.919H4.529c0-.033-.016-.082-.016-.1s0-.049-.049-.049h-.1v.147H4.316v-.344h.148c.066,0,.115.017.115.082a.1.1,0,0,1-.033.082.086.086,0,0,1,.033.066v.065c0,.017,0,.017.016.017v.033Zm-.065-.246c0-.049-.033-.049-.049-.049H4.365v.1h.1C4.5,32.722,4.529,32.706,4.529,32.673Zm.279.065a.368.368,0,0,0-.377-.361.364.364,0,0,0-.361.361.369.369,0,1,0,.737,0Zm-.049,0a.315.315,0,0,1-.328.311.3.3,0,0,1-.311-.311.311.311,0,0,1,.311-.311A.326.326,0,0,1,4.758,32.739Zm20.19-6.621c0,.492-.311.721-.869.721H23.014v-.492h1.065a.34.34,0,0,0,.213-.049.209.209,0,0,0,.065-.148.25.25,0,0,0-.065-.164.284.284,0,0,0-.2-.049c-.508-.017-1.147.016-1.147-.7a.691.691,0,0,1,.787-.688h1.1v.492H23.817a.389.389,0,0,0-.213.033.235.235,0,0,0-.082.18.179.179,0,0,0,.115.164.838.838,0,0,0,.213.033h.295a.93.93,0,0,1,.639.18A.708.708,0,0,1,24.948,26.118Zm-2.311-.492a.93.93,0,0,0-.639-.18H21.7a.84.84,0,0,1-.213-.033.178.178,0,0,1-.115-.164.192.192,0,0,1,.082-.18.388.388,0,0,1,.213-.033h1.016v-.492h-1.1c-.59,0-.787.361-.787.688,0,.721.639.688,1.147.7a.284.284,0,0,1,.2.049.25.25,0,0,1,.066.164.208.208,0,0,1-.066.148.373.373,0,0,1-.213.049H20.867v.492h1.065c.557,0,.869-.229.869-.721a.707.707,0,0,0-.164-.492Zm-2.1.737H19.245V25.9h1.262v-.459H19.245V25.02H20.54v-.475H18.7v2.294H20.54v-.475Zm-2.425-1.7a1.375,1.375,0,0,0-.672-.115H16.181v2.294h.557V26h.59c.2,0,.311.017.393.1a.731.731,0,0,1,.1.459v.278h.541V26.4a.756.756,0,0,0-.082-.426.639.639,0,0,0-.278-.2.631.631,0,0,0,.393-.606A.514.514,0,0,0,18.114,24.66ZM15,24.545H13.247l-.7.754-.672-.754H9.658v2.294h2.18l.7-.754.672.754H14.28v-.77h.688c.475,0,.951-.131.951-.77,0-.623-.492-.754-.918-.754Zm2.671.951a.681.681,0,0,1-.262.033l-.672.017V25.02h.672a.444.444,0,0,1,.262.049.208.208,0,0,1,.115.2A.286.286,0,0,1,17.672,25.5ZM15,25.61H14.28v-.59H15c.2,0,.328.082.328.279A.3.3,0,0,1,15,25.61Zm-2.114.082.852-.9v1.852Zm-1.327.672H10.2V25.9h1.213v-.459H10.2V25.02h1.377l.606.672-.623.672Zm11.865-3.474h-.787L21.6,21.169v1.721H20.491l-.213-.508H19.13l-.213.508h-.639a1.185,1.185,0,0,1-.8-.262,1.2,1.2,0,0,1-.279-.869,1.184,1.184,0,0,1,.295-.9,1.112,1.112,0,0,1,.836-.262h.524v.492h-.524a.579.579,0,0,0-.426.131.743.743,0,0,0-.148.524.82.82,0,0,0,.148.541.547.547,0,0,0,.377.115h.246l.787-1.8h.819l.918,2.163V20.6H21.9l.967,1.59V20.6h.557v2.294h0ZM16.918,20.6h-.557v2.294h.557V20.6Zm-1.164.1a1.319,1.319,0,0,0-.655-.1H13.837v2.294h.541v-.836h.59a.562.562,0,0,1,.41.1.7.7,0,0,1,.082.443v.295h.557v-.459a.612.612,0,0,0-.1-.41.686.686,0,0,0-.262-.2.651.651,0,0,0,.393-.606.568.568,0,0,0-.295-.524Zm-2.311,1.721H12.165v-.459h1.262V21.48H12.165v-.41h1.278V20.6H11.608V22.89h1.835v-.475ZM11.2,20.6h-.9l-.672,1.557L8.9,20.6H8.019v2.163L7.085,20.6H6.266l-.983,2.294h.59l.213-.508H7.233l.213.508H8.56v-1.8l.8,1.8h.475l.8-1.8v1.8H11.2V20.6h0Zm8.882,1.295-.377-.9-.377.9Zm-4.752-.36a.5.5,0,0,1-.279.049h-.672v-.508h.672a.724.724,0,0,1,.279.033.244.244,0,0,1,.1.213A.226.226,0,0,1,15.328,21.529Zm-9.046.36.377-.9.377.9ZM24.817,13.4H5.266V21.66l.672-1.524H7.364l.2.377v-.377H9.232l.377.819.361-.819H15.3a.969.969,0,0,1,.623.18v-.18h1.458v.18a1.952,1.952,0,0,1,.918-.18h2.114l.2.377v-.377h1.557l.23.377v-.377h1.524v3.212h-1.54l-.295-.492v.492H20.163l-.213-.524h-.475l-.213.524h-1a1.964,1.964,0,0,1-.885-.2v.2H15v-.737c0-.1-.016-.115-.082-.115h-.082v.852H10.248v-.41l-.164.41H9.117l-.164-.393v.393H7.1l-.2-.524H6.43l-.213.524H5.266v9.685H24.817V27.15a2.006,2.006,0,0,1-.8.148H22.588v-.2a1.264,1.264,0,0,1-.737.2H17.36V26.56c0-.1-.016-.1-.1-.1H17.18V27.3H15.705v-.869a1.8,1.8,0,0,1-.77.115h-.164V27.3h-1.8l-.426-.492-.475.492h-2.9V24.086h2.95l.426.491L13,24.086h1.983a1.236,1.236,0,0,1,.77.2v-.2h1.77a1.4,1.4,0,0,1,.754.2v-.2h2.671v.2a1.09,1.09,0,0,1,.672-.2h1.491v.2a1.185,1.185,0,0,1,.688-.2h1.016Z" transform="translate(-3.587 -11.809)" fill="#93a5ff" fill-rule="evenodd"/>
</svg>
