<svg xmlns="http://www.w3.org/2000/svg" width="43.181" height="27.586" viewBox="0 0 43.181 27.586">
  <g id="union-pay" transform="translate(-0.347 -0.422)">
    <path id="Path_131" data-name="Path 131" d="M168.077.462l-10.634,0h-.027a4.069,4.069,0,0,0-3.612,2.661l-5.029,22.251a2.059,2.059,0,0,0,2.02,2.667h11.171a3.555,3.555,0,0,0,3.142-2.657l5.029-22.252A2.062,2.062,0,0,0,168.077.462" transform="translate(-126.679 -0.032)" fill="#424d83"/>
    <path id="Path_132" data-name="Path 132" d="M79.394,25.357,84.423,3.105A4.069,4.069,0,0,1,88.034.444l-4.228,0H76.189a4.068,4.068,0,0,0-3.639,2.665l-5.03,22.251a2.059,2.059,0,0,0,2.019,2.667H81.414a2.059,2.059,0,0,1-2.02-2.667" transform="translate(-57.297 -0.015)" fill="#7387e7"/>
    <path id="Path_133" data-name="Path 133" d="M10.222,25.341,15.253,3.09A4.068,4.068,0,0,1,18.892.424l-9.758,0a4.074,4.074,0,0,0-3.7,2.668L.4,25.341a2.79,2.79,0,0,0-.058.4v.413a2.012,2.012,0,0,0,2.077,1.855h9.818a2.059,2.059,0,0,1-2.019-2.666" transform="translate(0)" fill="#93a5ff"/>
    <path id="Path_134" data-name="Path 134" d="M49.468,57.913h.185a.337.337,0,0,0,.337-.17l.48-.718h1.285l-.268.472h1.541l-.2.724H51a.858.858,0,0,1-.784.449H49.26l.208-.757m-.211,1.037h3.376l-.215.786H51.06l-.207.759h1.321l-.215.786H50.637L50.331,62.4c-.076.187.024.272.3.253h1.077l-.2.731H49.439q-.588,0-.4-.674l.392-1.431h-.844l.215-.786h.845l.207-.759h-.807Zm5.388-1.931-.053.46A2.475,2.475,0,0,1,55.807,57h2.137l-.817,2.958q-.1.507-.872.506H53.833l-.567,2.077c-.033.111.013.168.136.168h.477l-.175.645H52.491q-.7,0-.582-.421l1.6-5.917h1.133Zm1.81.836H54.547l-.228.8a1.586,1.586,0,0,1,.849-.237c.529-.008,1.134,0,1.134,0Zm-.691,1.852c.141.019.22-.037.229-.168l.117-.421H54.2l-.16.589Zm-1.288.956h1.1l-.021.477h.293c.148,0,.222-.047.222-.141l.087-.308h.915l-.122.449a.79.79,0,0,1-.823.589h-.587l0,.814c-.011.131.107.2.35.2h.551l-.178.645H54.939c-.371.018-.553-.159-.549-.534l.084-2.189M41.131,53.078A2.692,2.692,0,0,1,40.1,54.771a3.382,3.382,0,0,1-2.059.589,2.255,2.255,0,0,1-1.741-.6,1.573,1.573,0,0,1-.384-1.09,2.916,2.916,0,0,1,.065-.588l.9-4.317h1.352l-.883,4.268a1.373,1.373,0,0,0-.037.327.835.835,0,0,0,.163.538.925.925,0,0,0,.782.311,1.633,1.633,0,0,0,1.025-.307,1.41,1.41,0,0,0,.518-.869l.886-4.269h1.345l-.9,4.318m5.679-1.7H47.87l-.83,3.853H45.983l.828-3.853m.333-1.4h1.069l-.2.935H46.945l.2-.935m1.663,4.964a1.422,1.422,0,0,1-.418-1.075A2.471,2.471,0,0,1,48.4,53.6c.01-.1.023-.193.041-.281a2.613,2.613,0,0,1,.805-1.489,2.156,2.156,0,0,1,1.489-.553,1.562,1.562,0,0,1,1.13.4,1.442,1.442,0,0,1,.415,1.088,2.637,2.637,0,0,1-.016.267q-.018.145-.044.288a2.54,2.54,0,0,1-.8,1.468,2.171,2.171,0,0,1-1.484.543,1.574,1.574,0,0,1-1.13-.392m2.018-.763a1.879,1.879,0,0,0,.4-.918c.012-.064.023-.13.03-.2a1.778,1.778,0,0,0,.009-.182.781.781,0,0,0-.182-.553.663.663,0,0,0-.514-.2.926.926,0,0,0-.72.31,1.94,1.94,0,0,0-.407.934c-.012.064-.021.128-.03.19a1.382,1.382,0,0,0-.007.178.766.766,0,0,0,.182.547.671.671,0,0,0,.517.193.932.932,0,0,0,.72-.306" transform="translate(-30.37 -41.274)" fill="#fff"/>
    <path id="Path_135" data-name="Path 135" d="M183.623.451h-4.252l4.228,0h.024" transform="translate(-152.862 -0.024)" fill="#e02f41"/>
    <path id="Path_136" data-name="Path 136" d="M134.863.426l-7.559,0-.058,0h7.617" transform="translate(-108.354)" fill="#2e4f7d"/>
    <path id="Path_137" data-name="Path 137" d="M92.409,59.278l.255-.9h1.291l-.056.33a3.244,3.244,0,0,1,1.135-.33h1.6l-.254.9h-.251l-1.2,4.239h.251l-.239.842h-.251l-.1.365H93.328l.1-.365H90.965l.24-.842h.247l1.205-4.239h-.25m1.393,0-.329,1.147a5.365,5.365,0,0,1,1.047-.277c.107-.4.247-.87.247-.87Zm-.481,1.685-.33,1.2a3.587,3.587,0,0,1,1.051-.333c.123-.464.247-.869.247-.869h-.968Zm.242,2.554.247-.872h-.964l-.249.872Zm3.123-5.193H97.9l.052.448c-.008.114.06.168.2.168h.215l-.217.759H97.26c-.341.018-.516-.113-.532-.394Zm-.356,1.628h3.932l-.231.815H98.779l-.215.757h1.251l-.232.813H98.19l-.315.477h.682l.157.954c.019.095.1.141.247.141h.212l-.222.786H98.2c-.388.019-.589-.111-.606-.392l-.181-.872-.62.927a.672.672,0,0,1-.676.365H94.973l.223-.786h.357a.477.477,0,0,0,.379-.2l.971-1.4H95.651l.232-.813h1.358l.216-.757H96.1l.232-.815m-20.7-7.241h.955l-.109.557.137-.159a1.486,1.486,0,0,1,1.13-.5,1.035,1.035,0,0,1,.874.352,1.17,1.17,0,0,1,.143.976l-.526,2.626h-.982l.475-2.38a.759.759,0,0,0-.04-.547.463.463,0,0,0-.423-.176.918.918,0,0,0-.638.235,1.166,1.166,0,0,0-.345.654l-.438,2.214H74.86l.771-3.856m10.953,0h.956l-.109.557.135-.159a1.489,1.489,0,0,1,1.13-.5,1.031,1.031,0,0,1,.873.352,1.167,1.167,0,0,1,.143.976l-.524,2.626h-.983l.475-2.38a.764.764,0,0,0-.04-.547.466.466,0,0,0-.422-.176.925.925,0,0,0-.64.235,1.152,1.152,0,0,0-.343.654l-.44,2.214h-.982l.77-3.856m4.725-2.39h2.775a1.875,1.875,0,0,1,1.23.358,1.284,1.284,0,0,1,.424,1.035v.014c0,.085-.006.182-.014.286s-.032.212-.054.316a2.441,2.441,0,0,1-.844,1.435,2.388,2.388,0,0,1-1.561.543H91.776l-.46,2.258H90.027l1.282-6.245m.694,2.9h1.234A1.2,1.2,0,0,0,94,53a1.163,1.163,0,0,0,.374-.687c.011-.057.018-.109.026-.156s.009-.09.009-.133a.529.529,0,0,0-.236-.482,1.408,1.408,0,0,0-.747-.151H92.379L92,53.223m9.5,4.089a6.076,6.076,0,0,1-1.024,1.606,2.073,2.073,0,0,1-1.769.732l.094-.661c.916-.282,1.412-1.555,1.694-2.118l-.337-4.149.709-.009h.595l.064,2.6,1.114-2.6h1.128l-2.269,4.6M98.35,53.026l-.448.308a1.408,1.408,0,0,0-1.721-.21c-1.124.521-2.064,4.52,1.032,3.2l.176.209,1.218.031.8-3.633-1.056.092m-.693,1.986c-.2.577-.632.959-.975.85s-.464-.663-.266-1.241.635-.959.975-.85.466.663.266,1.241" transform="translate(-63.624 -42.607)" fill="#fff"/>
  </g>
</svg>
