<svg xmlns="http://www.w3.org/2000/svg" width="59.156" height="19.191" viewBox="0 0 59.156 19.191">
  <g id="Group_139" data-name="Group 139" transform="translate(-5.567 -25.55)">
    <g id="Group_101" data-name="Group 101" transform="translate(5.567 25.55)">
      <path id="Path_112" data-name="Path 112" d="M36.871,70.391H32.044L35.06,51.85h4.827ZM27.983,51.85,23.381,64.6l-.545-2.746h0L21.213,53.52a2.066,2.066,0,0,0-2.29-1.669H11.315l-.089.314a18.058,18.058,0,0,1,5.049,2.119l4.194,16.108H25.5l7.68-18.541H27.983ZM65.95,70.391h4.432L66.517,51.85h-3.88a2.218,2.218,0,0,0-2.228,1.382l-7.2,17.159h5.032l1.006-2.754h6.136Zm-5.312-6.558,2.536-6.938L64.6,63.832Zm-7.051-7.523.689-3.981a13.933,13.933,0,0,0-4.341-.808c-2.4,0-8.084,1.047-8.084,6.138,0,4.79,6.676,4.849,6.676,7.365s-5.988,2.065-7.965.479l-.718,4.163a13.527,13.527,0,0,0,5.448,1.047c3.294,0,8.263-1.706,8.263-6.348,0-4.821-6.736-5.269-6.736-7.365s4.7-1.827,6.767-.689Z" transform="translate(-11.226 -51.519)" fill="#93a5ff"/>
    </g>
    <path id="Path_113" data-name="Path 113" d="M22.837,62.193l-1.624-8.338a2.066,2.066,0,0,0-2.29-1.669H11.315l-.089.314a18.7,18.7,0,0,1,7.164,3.6A14.457,14.457,0,0,1,22.837,62.193Z" transform="translate(-5.659 -26.305)" fill="#fff"/>
  </g>
</svg>
