<svg xmlns="http://www.w3.org/2000/svg" width="37.73" height="29.354" viewBox="0 0 37.73 29.354">
  <g id="mastercard-2" transform="translate(0 0)">
    <path id="Path_115" data-name="Path 115" d="M138.589,1321.208v.076h.07a.075.075,0,0,0,.038-.01.034.034,0,0,0,.014-.029.032.032,0,0,0-.014-.028.068.068,0,0,0-.038-.01h-.07Zm.071-.053a.13.13,0,0,1,.085.025.081.081,0,0,1,.03.067.077.077,0,0,1-.024.059.116.116,0,0,1-.068.028l.094.108H138.7l-.087-.107h-.028v.107h-.061v-.286h.132Zm-.019.384a.226.226,0,0,0,.093-.019.241.241,0,0,0,.075-.051.236.236,0,0,0,.051-.075.238.238,0,0,0-.051-.262.241.241,0,0,0-.075-.051.236.236,0,0,0-.093-.018.247.247,0,0,0-.094.018.239.239,0,0,0-.077.051.243.243,0,0,0-.05.264.223.223,0,0,0,.05.075.245.245,0,0,0,.077.051.236.236,0,0,0,.094.019m0-.547a.316.316,0,0,1,.222.091.3.3,0,0,1,.067.336.32.32,0,0,1-.067.1.339.339,0,0,1-.1.066.309.309,0,0,1-.122.024.314.314,0,0,1-.124-.024.295.295,0,0,1-.166-.167.3.3,0,0,1,.067-.336.3.3,0,0,1,.1-.066.319.319,0,0,1,.124-.025m-28.884-1.1a.937.937,0,1,1,.939.991.929.929,0,0,1-.939-.991m2.506,0v-1.549h-.673v.377a1.174,1.174,0,0,0-.978-.454,1.628,1.628,0,0,0,0,3.252,1.174,1.174,0,0,0,.978-.454v.376h.672v-1.549Zm22.747,0a.938.938,0,1,1,.939.991.929.929,0,0,1-.939-.991m2.507,0V1317.1h-.674v1.62a1.174,1.174,0,0,0-.978-.454,1.628,1.628,0,0,0,0,3.252,1.174,1.174,0,0,0,.978-.454v.376h.674Zm-16.9-1.023a.769.769,0,0,1,.784.751H119.8a.8.8,0,0,1,.823-.751m.013-.6a1.627,1.627,0,0,0,.045,3.252,1.88,1.88,0,0,0,1.269-.434l-.33-.5a1.477,1.477,0,0,1-.9.324.86.86,0,0,1-.926-.758h2.3c.007-.084.013-.168.013-.259a1.485,1.485,0,0,0-1.47-1.626m8.128,1.626a.937.937,0,1,1,.939.991.929.929,0,0,1-.939-.991m2.507,0v-1.548H130.6v.377a1.175,1.175,0,0,0-.978-.454,1.628,1.628,0,0,0,0,3.252,1.175,1.175,0,0,0,.978-.454v.376h.673v-1.549Zm-6.308,0a1.564,1.564,0,0,0,1.652,1.626,1.619,1.619,0,0,0,1.113-.369l-.323-.544a1.362,1.362,0,0,1-.811.279.993.993,0,0,1,0-1.983,1.364,1.364,0,0,1,.811.279l.323-.544a1.62,1.62,0,0,0-1.113-.369,1.564,1.564,0,0,0-1.652,1.626m8.679-1.626a.914.914,0,0,0-.816.454v-.375h-.667v3.1h.674V1319.7c0-.512.22-.8.66-.8a1.093,1.093,0,0,1,.421.078l.207-.635a1.433,1.433,0,0,0-.48-.084m-18.045.324a2.315,2.315,0,0,0-1.262-.324c-.784,0-1.289.376-1.289.991,0,.5.376.816,1.068.913l.318.045c.369.052.543.149.543.324,0,.239-.245.376-.706.376a1.65,1.65,0,0,1-1.03-.324l-.316.525a2.233,2.233,0,0,0,1.34.4c.894,0,1.412-.421,1.412-1.01,0-.544-.408-.829-1.082-.926l-.317-.046c-.291-.038-.525-.1-.525-.3,0-.226.22-.363.589-.363a2,2,0,0,1,.965.266l.291-.544Zm8.687-.323a.912.912,0,0,0-.815.454v-.376H122.8v3.1h.673V1319.7c0-.512.22-.8.66-.8a1.092,1.092,0,0,1,.421.078l.207-.635a1.433,1.433,0,0,0-.48-.084m-5.744.078h-1.1v-.939h-.681v.939h-.628v.615h.628v1.412c0,.718.279,1.146,1.075,1.146a1.581,1.581,0,0,0,.842-.239l-.194-.577a1.245,1.245,0,0,1-.6.175c-.337,0-.446-.207-.446-.518v-1.4h1.1Zm-10.065,3.1V1319.5a1.153,1.153,0,0,0-1.218-1.231,1.2,1.2,0,0,0-1.088.551,1.136,1.136,0,0,0-1.023-.551,1.024,1.024,0,0,0-.907.46v-.383h-.674v3.1h.679v-1.717a.725.725,0,0,1,.758-.823c.447,0,.673.291.673.816v1.723h.681v-1.716a.73.73,0,0,1,.758-.823c.46,0,.679.292.679.816v1.723Z" transform="translate(-101.607 -1292.256)" fill="#fff"/>
    <path id="Path_116" data-name="Path 116" d="M1929.833,977.673v-.453h-.118l-.136.311-.135-.311h-.118v.453h.084v-.341l.127.294h.087l.128-.295v.342h.083Zm-.748,0V977.3h.151v-.076h-.386v.076H1929v.375h.083Z" transform="translate(-1892.466 -958.787)" fill="#f79410"/>
    <path id="Path_117" data-name="Path 117" d="M739.912,150.485h-10.2V132.15h10.2Z" transform="translate(-715.946 -129.658)" fill="#cfd6fe"/>
    <path id="Path_118" data-name="Path 118" d="M14.411,11.66a11.641,11.641,0,0,1,4.453-9.167,11.66,11.66,0,1,0,0,18.335,11.641,11.641,0,0,1-4.453-9.167" transform="translate(0 0)" fill="#93a5ff"/>
    <path id="Path_119" data-name="Path 119" d="M1018.976,11.66a11.66,11.66,0,0,1-18.865,9.167,11.661,11.661,0,0,0,0-18.335,11.66,11.66,0,0,1,18.865,9.167" transform="translate(-981.245 0)" fill="#f7f8ff"/>
  </g>
</svg>
